<?xml version="1.0" encoding="iso-8859-1"?>
<!-- Generator: Adobe Illustrator 19.0.0, SVG Export Plug-In . SVG Version: 6.00 Build 0)  -->
<svg version="1.1" id="Capa_1" xmlns="http://www.w3.org/2000/svg" xmlns:xlink="http://www.w3.org/1999/xlink" x="0px" y="0px"
	 viewBox="0 0 469.333 469.333" style="enable-background:new 0 0 469.333 469.333;" xml:space="preserve">
<g>
	<g>
		<g>
			<path d="M320,213.333c35.307,0,63.787-28.693,63.787-64c0-35.307-28.48-64-63.787-64c-35.307,0-64,28.693-64,64
				C256,184.64,284.693,213.333,320,213.333z"/>
			<path d="M149.333,213.333c35.307,0,63.787-28.693,63.787-64c0-35.307-28.48-64-63.787-64c-35.307,0-64,28.693-64,64
				C85.333,184.64,114.027,213.333,149.333,213.333z"/>
			<path d="M149.333,256C99.52,256,0,280.96,0,330.667V384h298.667v-53.333C298.667,280.96,199.147,256,149.333,256z"/>
			<path d="M320,256c-6.187,0-13.12,0.427-20.587,1.173c24.747,17.813,41.92,41.813,41.92,73.493V384h128v-53.333
				C469.333,280.96,369.813,256,320,256z"/>
		</g>
	</g>
</g>
<g>
</g>
<g>
</g>
<g>
</g>
<g>
</g>
<g>
</g>
<g>
</g>
<g>
</g>
<g>
</g>
<g>
</g>
<g>
</g>
<g>
</g>
<g>
</g>
<g>
</g>
<g>
</g>
<g>
</g>
</svg>
